<mxfile host="app.diagrams.net" modified="2023-04-29T08:19:45.791Z" agent="Mozilla/5.0 (Windows NT 10.0; Win64; x64) AppleWebKit/537.36 (KHTML, like Gecko) Chrome/112.0.0.0 Safari/537.36" etag="Wx8tATY27w7QJGg_-8Kk" version="21.2.3" type="github">
  <diagram name="第 1 页" id="w9zgdJDrKIqVvmd1u4_n">
    <mxGraphModel dx="1050" dy="558" grid="1" gridSize="10" guides="1" tooltips="1" connect="1" arrows="1" fold="1" page="1" pageScale="1" pageWidth="827" pageHeight="1169" math="0" shadow="0">
      <root>
        <mxCell id="0" />
        <mxCell id="1" parent="0" />
        <mxCell id="NYbooxGIPcYR-TxHs3kZ-8" value="" style="rounded=1;whiteSpace=wrap;html=1;" vertex="1" parent="1">
          <mxGeometry x="310" y="140" width="500" height="300" as="geometry" />
        </mxCell>
        <mxCell id="NYbooxGIPcYR-TxHs3kZ-1" value="用户程序" style="rounded=1;whiteSpace=wrap;html=1;" vertex="1" parent="1">
          <mxGeometry x="110" y="350" width="120" height="60" as="geometry" />
        </mxCell>
        <mxCell id="NYbooxGIPcYR-TxHs3kZ-2" value="" style="shape=flexArrow;endArrow=classic;startArrow=classic;html=1;rounded=0;exitX=1.007;exitY=0.633;exitDx=0;exitDy=0;exitPerimeter=0;entryX=0;entryY=0.5;entryDx=0;entryDy=0;" edge="1" parent="1" source="NYbooxGIPcYR-TxHs3kZ-1" target="NYbooxGIPcYR-TxHs3kZ-3">
          <mxGeometry width="100" height="100" relative="1" as="geometry">
            <mxPoint x="280" y="400" as="sourcePoint" />
            <mxPoint x="410" y="388" as="targetPoint" />
          </mxGeometry>
        </mxCell>
        <mxCell id="NYbooxGIPcYR-TxHs3kZ-3" value="map操作接口" style="rounded=1;whiteSpace=wrap;html=1;" vertex="1" parent="1">
          <mxGeometry x="400" y="360" width="116" height="50" as="geometry" />
        </mxCell>
        <mxCell id="NYbooxGIPcYR-TxHs3kZ-4" value="map" style="rounded=1;whiteSpace=wrap;html=1;" vertex="1" parent="1">
          <mxGeometry x="398" y="220" width="120" height="40" as="geometry" />
        </mxCell>
        <mxCell id="NYbooxGIPcYR-TxHs3kZ-5" value="" style="shape=flexArrow;endArrow=classic;startArrow=classic;html=1;rounded=0;entryX=0.5;entryY=1;entryDx=0;entryDy=0;" edge="1" parent="1" source="NYbooxGIPcYR-TxHs3kZ-3" target="NYbooxGIPcYR-TxHs3kZ-4">
          <mxGeometry width="100" height="100" relative="1" as="geometry">
            <mxPoint x="360" y="340" as="sourcePoint" />
            <mxPoint x="460" y="240" as="targetPoint" />
          </mxGeometry>
        </mxCell>
        <mxCell id="NYbooxGIPcYR-TxHs3kZ-6" value="eBPF程序" style="rounded=1;whiteSpace=wrap;html=1;" vertex="1" parent="1">
          <mxGeometry x="610" y="360" width="120" height="50" as="geometry" />
        </mxCell>
        <mxCell id="NYbooxGIPcYR-TxHs3kZ-7" value="" style="shape=flexArrow;endArrow=classic;startArrow=classic;html=1;rounded=0;exitX=1;exitY=0.5;exitDx=0;exitDy=0;entryX=0;entryY=0.5;entryDx=0;entryDy=0;" edge="1" parent="1" source="NYbooxGIPcYR-TxHs3kZ-3" target="NYbooxGIPcYR-TxHs3kZ-6">
          <mxGeometry width="100" height="100" relative="1" as="geometry">
            <mxPoint x="560" y="340" as="sourcePoint" />
            <mxPoint x="660" y="240" as="targetPoint" />
          </mxGeometry>
        </mxCell>
        <mxCell id="NYbooxGIPcYR-TxHs3kZ-9" value="Linux内核" style="text;strokeColor=none;fillColor=none;align=left;verticalAlign=middle;spacingLeft=4;spacingRight=4;overflow=hidden;points=[[0,0.5],[1,0.5]];portConstraint=eastwest;rotatable=0;whiteSpace=wrap;html=1;fontSize=22;" vertex="1" parent="1">
          <mxGeometry x="510" y="160" width="130" height="50" as="geometry" />
        </mxCell>
      </root>
    </mxGraphModel>
  </diagram>
</mxfile>
